<svg xmlns="http://www.w3.org/2000/svg" style="display: none;"><symbol id="github-logo" viewBox="0 0 438.549 438.549"><title>github-logo</title><path d="M409.132,114.573c-19.608-33.596-46.205-60.194-79.798-79.8C295.736,15.166,259.057,5.365,219.271,5.365 c-39.781,0-76.472,9.804-110.063,29.408c-33.596,19.605-60.192,46.204-79.8,79.8C9.803,148.168,0,184.854,0,224.63 c0,47.78,13.94,90.745,41.827,128.906c27.884,38.164,63.906,64.572,108.063,79.227c5.14,0.954,8.945,0.283,11.419-1.996 c2.475-2.282,3.711-5.14,3.711-8.562c0-0.571-0.049-5.708-0.144-15.417c-0.098-9.709-0.144-18.179-0.144-25.406l-6.567,1.136 c-4.187,0.767-9.469,1.092-15.846,1c-6.374-0.089-12.991-0.757-19.842-1.999c-6.854-1.231-13.229-4.086-19.13-8.559 c-5.898-4.473-10.085-10.328-12.56-17.556l-2.855-6.57c-1.903-4.374-4.899-9.233-8.992-14.559 c-4.093-5.331-8.232-8.945-12.419-10.848l-1.999-1.431c-1.332-0.951-2.568-2.098-3.711-3.429c-1.142-1.331-1.997-2.663-2.568-3.997 c-0.572-1.335-0.098-2.43,1.427-3.289c1.525-0.859,4.281-1.276,8.28-1.276l5.708,0.853c3.807,0.763,8.516,3.042,14.133,6.851 c5.614,3.806,10.229,8.754,13.846,14.842c4.38,7.806,9.657,13.754,15.846,17.847c6.184,4.093,12.419,6.136,18.699,6.136 c6.28,0,11.704-0.476,16.274-1.423c4.565-0.952,8.848-2.383,12.847-4.285c1.713-12.758,6.377-22.559,13.988-29.41 c-10.848-1.14-20.601-2.857-29.264-5.14c-8.658-2.286-17.605-5.996-26.835-11.14c-9.235-5.137-16.896-11.516-22.985-19.126 c-6.09-7.614-11.088-17.61-14.987-29.979c-3.901-12.374-5.852-26.648-5.852-42.826c0-23.035,7.52-42.637,22.557-58.817 c-7.044-17.318-6.379-36.732,1.997-58.24c5.52-1.715,13.706-0.428,24.554,3.853c10.85,4.283,18.794,7.952,23.84,10.994 c5.046,3.041,9.089,5.618,12.135,7.708c17.705-4.947,35.976-7.421,54.818-7.421s37.117,2.474,54.823,7.421l10.849-6.849 c7.419-4.57,16.18-8.758,26.262-12.565c10.088-3.805,17.802-4.853,23.134-3.138c8.562,21.509,9.325,40.922,2.279,58.24 c15.036,16.18,22.559,35.787,22.559,58.817c0,16.178-1.958,30.497-5.853,42.966c-3.9,12.471-8.941,22.457-15.125,29.979 c-6.191,7.521-13.901,13.85-23.131,18.986c-9.232,5.14-18.182,8.85-26.84,11.136c-8.662,2.286-18.415,4.004-29.263,5.146 c9.894,8.562,14.842,22.077,14.842,40.539v60.237c0,3.422,1.19,6.279,3.572,8.562c2.379,2.279,6.136,2.95,11.276,1.995 c44.163-14.653,80.185-41.062,108.068-79.226c27.88-38.161,41.825-81.126,41.825-128.906 C438.536,184.851,428.728,148.168,409.132,114.573z"/></symbol><symbol id="facebook-logo" viewBox="0 0 438.536 438.536"><title>facebook-logo</title><path d="M414.41,24.123C398.333,8.042,378.963,0,356.315,0H82.228C59.58,0,40.21,8.042,24.126,24.123 C8.045,40.207,0.003,59.576,0.003,82.225v274.084c0,22.647,8.042,42.018,24.123,58.102c16.084,16.084,35.454,24.126,58.102,24.126 h274.084c22.648,0,42.018-8.042,58.095-24.126c16.084-16.084,24.126-35.454,24.126-58.102V82.225 C438.532,59.576,430.49,40.204,414.41,24.123z M373.155,225.548h-49.963V406.84h-74.802V225.548H210.99V163.02h37.401v-37.402 c0-26.838,6.283-47.107,18.843-60.813c12.559-13.706,33.304-20.555,62.242-20.555h49.963v62.526h-31.401 c-10.663,0-17.467,1.853-20.417,5.568c-2.949,3.711-4.428,10.23-4.428,19.558v31.119h56.534L373.155,225.548z"/></symbol><symbol id="dribbble-logo" viewBox="0 0 438.533 438.533"><title>dribbble-logo</title><path d="M409.133,109.203c-19.608-33.592-46.205-60.189-79.798-79.796C295.736,9.801,259.058,0,219.273,0 c-39.781,0-76.47,9.801-110.063,29.407c-33.595,19.604-60.192,46.201-79.8,79.796C9.801,142.8,0,179.489,0,219.267 c0,39.78,9.804,76.463,29.407,110.062c19.607,33.592,46.204,60.189,79.799,79.798c33.597,19.605,70.283,29.407,110.063,29.407 s76.47-9.802,110.065-29.407c33.593-19.602,60.189-46.206,79.795-79.798c19.603-33.596,29.403-70.284,29.403-110.062 C438.533,179.485,428.732,142.795,409.133,109.203z M219.27,31.977c47.201,0,88.41,15.607,123.621,46.82l-3.569,4.993 c-1.427,2.002-4.996,5.852-10.704,11.565c-5.709,5.708-11.943,11.136-18.699,16.274c-6.762,5.14-15.94,10.992-27.555,17.559 c-11.611,6.567-23.982,12.328-37.117,17.276c-21.887-40.355-45.296-76.709-70.231-109.064 C190.055,33.784,204.805,31.977,219.27,31.977z M72.524,103.06c18.271-23.026,40.537-40.73,66.806-53.1 c23.601,31.405,46.82,67.381,69.662,107.921c-57.862,15.227-115.532,22.841-173.014,22.838 C42.072,151.98,54.253,126.091,72.524,103.06z M44.54,286.794c-8.376-21.412-12.563-43.923-12.563-67.527 c0-2.666,0.098-4.665,0.286-5.996c68.905,0,132.955-8.848,192.149-26.553c6.092,11.8,11.136,22.364,15.133,31.693 c-0.771,0.38-1.999,0.806-3.713,1.283c-1.719,0.476-2.953,0.806-3.721,0.999l-10.561,3.711 c-7.236,2.666-16.708,7.235-28.409,13.703c-11.704,6.478-24.123,14.182-37.257,23.13c-13.134,8.949-26.696,20.797-40.684,35.553 c-13.99,14.75-25.743,30.591-35.26,47.53C64.713,327.381,52.914,308.2,44.54,286.794z M219.27,406.56 c-44.54,0-84.32-14.277-119.343-42.825l4.283,3.142c6.661-14.66,16.462-28.746,29.408-42.257 c12.944-13.511,25.41-24.413,37.401-32.695c11.991-8.274,25.028-16.077,39.115-23.414c14.084-7.323,23.691-11.991,28.835-13.983 c5.14-1.998,9.233-3.572,12.278-4.716l0.568-0.287h0.575c18.647,48.916,31.977,96.313,39.968,142.184 C268.756,401.611,244.397,406.557,219.27,406.56z M376.876,320.479c-14.086,21.796-31.696,39.834-52.817,54.104 c-7.81-43.776-19.985-88.415-36.549-133.902c37.877-5.907,76.8-3.142,116.771,8.274 C400.092,274.841,390.955,298.687,376.876,320.479z M403.706,216.698c-1.903-0.378-4.285-0.81-7.139-1.283 c-2.854-0.473-6.331-1.047-10.424-1.713c-4.087-0.666-8.662-1.283-13.702-1.855c-5.045-0.571-10.421-1.093-16.136-1.569 c-5.708-0.478-11.8-0.855-18.268-1.143c-6.479-0.284-13.042-0.428-19.705-0.428c-6.656,0-13.657,0.193-20.981,0.571 c-7.326,0.375-14.414,1.049-21.265,1.999c-0.575-0.953-1.287-2.524-2.143-4.714c-0.855-2.187-1.479-3.855-1.848-4.997 c-3.621-7.994-7.81-17.036-12.573-27.121c13.134-5.333,25.652-11.469,37.555-18.418c11.892-6.949,21.402-13.131,28.544-18.555 c7.139-5.43,13.895-11.188,20.27-17.277c6.379-6.09,10.513-10.323,12.423-12.703c1.906-2.384,3.713-4.714,5.424-6.995l0.287-0.288 c27.788,33.88,41.974,72.897,42.538,117.059L403.706,216.698z"/></symbol><symbol id="crop-symbol" viewBox="0 0 475.078 475.078"><title>crop-symbol</title><path d="M465.948,328.897h-63.953V85.936l70.517-70.233c1.711-1.903,2.566-4.089,2.566-6.565c0-2.478-0.855-4.665-2.566-6.567 C470.609,0.859,468.419,0,465.948,0c-2.478,0-4.668,0.855-6.57,2.57l-70.237,70.521H146.18V9.137c0-2.667-0.855-4.858-2.57-6.567 C141.897,0.859,139.71,0,137.042,0H82.227c-2.665,0-4.858,0.855-6.567,2.57c-1.711,1.713-2.57,3.903-2.57,6.567v63.954H9.136 c-2.666,0-4.856,0.854-6.567,2.568C0.859,77.372,0,79.562,0,82.226v54.818c0,2.666,0.855,4.856,2.568,6.565 c1.714,1.711,3.905,2.57,6.567,2.57h63.954V392.86c0,2.666,0.855,4.856,2.57,6.561c1.713,1.711,3.903,2.573,6.567,2.573h246.678 v63.953c0,2.663,0.855,4.854,2.566,6.564c1.708,1.711,3.898,2.566,6.57,2.566h54.816c2.666,0,4.856-0.855,6.563-2.566 c1.712-1.711,2.574-3.901,2.574-6.564v-63.953h63.953c2.662,0,4.853-0.862,6.56-2.573c1.712-1.704,2.567-3.895,2.567-6.561v-54.819 c0-2.669-0.855-4.863-2.567-6.57C470.801,329.76,468.61,328.897,465.948,328.897z M146.18,146.174h169.881L146.18,316.054V146.174z M328.904,328.897H159.026l169.878-169.88V328.897z"/></symbol><symbol id="web-development" viewBox="0 0 512 512"><title>web-development</title><path d="m512 121v-75c0-24.813-20.187-45-45-45h-422c-24.813 0-45 20.187-45 45v75zm-166-60h90c8.284 0 15 6.716 15 15s-6.716 15-15 15h-90c-8.284 0-15-6.716-15-15s6.716-15 15-15zm-150 0c8.284 0 15 6.716 15 15s-6.716 15-15 15-15-6.716-15-15 6.716-15 15-15zm-60 0c8.284 0 15 6.716 15 15s-6.716 15-15 15-15-6.716-15-15 6.716-15 15-15zm-60 0c8.284 0 15 6.716 15 15s-6.716 15-15 15-15-6.716-15-15 6.716-15 15-15z"/><path d="m0 151v315c0 24.813 20.187 45 45 45h422c24.813 0 45-20.187 45-45v-315zm175.37 213.287c6.47 5.175 7.518 14.614 2.343 21.083-5.174 6.468-14.615 7.518-21.083 2.342l-75-60c-7.499-5.997-7.504-17.424 0-23.426l75-60c6.466-5.175 15.907-4.127 21.083 2.342 5.175 6.469 4.127 15.909-2.343 21.083l-60.358 48.289zm139.417-147.378-90 210c-3.263 7.613-12.079 11.143-19.696 7.878-7.614-3.263-11.142-12.082-7.878-19.696l90-210c3.264-7.614 12.082-11.141 19.696-7.878s11.142 12.081 7.878 19.696zm115.583 110.804-75 60c-6.458 5.168-15.9 4.136-21.083-2.342-5.175-6.469-4.127-15.909 2.343-21.083l60.358-48.288-60.358-48.287c-6.47-5.175-7.518-14.614-2.343-21.083 5.174-6.469 14.614-7.518 21.083-2.342l75 60c7.499 5.997 7.504 17.423 0 23.425z"/></symbol><symbol id="group" viewBox="0 0 512.24 512.24"><title>group</title><path d="m477.95 98.59h-64.29v-64.29h-315.07v64.29h-64.29v315.07h64.29v64.29h315.07v-64.29h64.29zm-82.79 296.57h-195.38v-82.69h-82.69v-195.38h195.38v82.69h82.69z"/><path d="m312.47 312.47h-82.69v52.69h135.38v-135.38h-52.69z"/><path d="m68.59 68.59c0-12.713 0-55.191 0-68.59h-68.59v68.59z"/><path d="m443.66 0v68.59h68.58v-68.59z"/><path d="m443.66 443.66v68.58h68.58v-68.58c-13.633 0-55.651 0-68.58 0z"/><path d="m0 443.66v68.58h68.59c0-13.633 0-55.651 0-68.58-12.713 0-55.191 0-68.59 0z"/><path d="m282.47 282.47c0-31.352 0-103.394 0-135.38h-135.38v135.38z"/></symbol><symbol id="layers" viewBox="0 0 477.867 477.867"><title>layers</title><g> <g> <path d="M470.382,224.808c-0.482-0.323-0.979-0.621-1.492-0.893l-33.911-18.261l-188.058,99.567 c-4.996,2.646-10.978,2.646-15.974,0L42.89,205.654L8.978,223.915C0.736,228.29-2.4,238.518,1.975,246.76 c0.272,0.512,0.57,1.01,0.893,1.492l236.066,124.979l236.066-124.979C480.199,240.503,478.132,230.007,470.382,224.808z"/> </g> </g><g> <g> <path d="M475.803,333.227c-1.581-2.929-3.984-5.332-6.912-6.912l-33.911-18.261l-188.058,99.567 c-4.996,2.646-10.978,2.646-15.974,0L42.89,308.054L8.978,326.315c-8.295,4.477-11.389,14.83-6.912,23.125 c1.581,2.929,3.984,5.332,6.912,6.912l221.867,119.467c5.05,2.719,11.129,2.719,16.179,0l221.867-119.467 C477.185,351.875,480.28,341.522,475.803,333.227z"/> </g> </g><g> <g> <path d="M470.382,122.408c-0.482-0.323-0.979-0.621-1.492-0.893L247.024,2.048c-5.05-2.719-11.129-2.719-16.179,0L8.978,121.515 C0.736,125.89-2.4,136.118,1.975,144.36c0.272,0.512,0.57,1.01,0.893,1.492l236.066,124.979l236.066-124.979 C480.199,138.103,478.132,127.607,470.382,122.408z"/> </g> </g></symbol><symbol id="vector-design" viewBox="0 0 512 512"><title>vector-design</title><path d="m481.425 258.585c-4.31-77.083-49.168-145.312-113.637-182.585h56.975c6.213 17.422 22.707 30 42.237 30 24.814 0 45-20.186 45-45s-20.186-45-45-45c-19.53 0-36.024 12.578-42.237 30h-123.763v-30h-90v30h-123.763c-6.213-17.422-22.707-30-42.237-30-24.814 0-45 20.186-45 45s20.186 45 45 45c19.53 0 36.024-12.578 42.237-30.01h56.977c-64.471 37.284-109.327 105.484-113.639 182.595-17.717 6.05-30.575 22.674-30.575 42.415 0 24.814 20.186 45 45 45s45-20.186 45-45c0-19.125-12.043-35.391-28.901-41.895 5.33-85.296 67.3-157.32 149.901-177.037v23.932h90v-23.932c82.601 19.717 144.571 91.741 149.901 177.037-16.858 6.504-28.901 22.77-28.901 41.895 0 24.814 20.186 45 45 45s45-20.186 45-45c0-19.741-12.858-36.365-30.575-42.415z"/><path d="m151 436h210v60h-210z"/><path d="m148.905 300.341 52.821 105.659h108.548l52.821-105.659-92.095-153.492v169.151h-30v-169.151z"/></symbol><symbol id="behance" viewBox="0 0 511.958 511.958"><title>behance</title><path d="M210.624,240.619c10.624-5.344,18.656-11.296,24.16-17.728c9.792-11.584,14.624-26.944,14.624-45.984 c0-18.528-4.832-34.368-14.496-47.648c-16.128-21.632-43.424-32.704-82.016-33.28H0v312.096h142.56 c16.064,0,30.944-1.376,44.704-4.192c13.76-2.848,25.664-8.064,35.744-15.68c8.96-6.624,16.448-14.848,22.4-24.544 c9.408-14.656,14.112-31.264,14.112-49.76c0-17.92-4.128-33.184-12.32-45.728C238.912,255.627,226.752,246.443,210.624,240.619z M63.072,150.187h68.864c15.136,0,27.616,1.632,37.408,4.864c11.328,4.704,16.992,14.272,16.992,28.864 c0,13.088-4.32,22.24-12.864,27.392c-8.608,5.152-19.776,7.744-33.472,7.744H63.072V150.187z M171.968,348.427 c-7.616,3.68-18.336,5.504-32.064,5.504H63.072v-83.232h77.888c13.568,0.096,24.128,1.888,31.68,5.248 c13.44,6.08,20.128,17.216,20.128,33.504C192.768,328.651,185.856,341.579,171.968,348.427z"/><rect x="327.168" y="110.539" width="135.584" height="38.848"/><path d="M509.856,263.851c-2.816-18.08-9.024-33.984-18.688-47.712c-10.592-15.552-24.032-26.944-40.384-34.144 c-16.288-7.232-34.624-10.848-55.04-10.816c-34.272,0-62.112,10.72-83.648,32c-21.472,21.344-32.224,52.032-32.224,92.032 c0,42.656,11.872,73.472,35.744,92.384c23.776,18.944,51.232,28.384,82.4,28.384c37.728,0,67.072-11.232,88.032-33.632 c13.408-14.144,20.992-28.064,22.656-41.728H446.24c-3.616,6.752-7.808,12.032-12.608,15.872 c-8.704,7.04-20.032,10.56-33.92,10.56c-13.216,0-24.416-2.912-33.76-8.704c-15.424-9.28-23.488-25.536-24.512-48.672h170.464 C512.16,289.739,511.52,274.411,509.856,263.851z M342.976,269.835c2.24-15.008,7.68-26.912,16.32-35.712 c8.64-8.768,20.864-13.184,36.512-13.216c14.432,0,26.496,4.128,36.32,12.416c9.696,8.352,15.168,20.48,16.288,36.512H342.976z"/></symbol><symbol id="instagram" viewBox="0 0 512 512"><title>instagram</title><g> <g> <path d="M352,0H160C71.648,0,0,71.648,0,160v192c0,88.352,71.648,160,160,160h192c88.352,0,160-71.648,160-160V160 C512,71.648,440.352,0,352,0z M464,352c0,61.76-50.24,112-112,112H160c-61.76,0-112-50.24-112-112V160C48,98.24,98.24,48,160,48 h192c61.76,0,112,50.24,112,112V352z"/> </g> </g><g> <g> <path d="M256,128c-70.688,0-128,57.312-128,128s57.312,128,128,128s128-57.312,128-128S326.688,128,256,128z M256,336 c-44.096,0-80-35.904-80-80c0-44.128,35.904-80,80-80s80,35.872,80,80C336,300.096,300.096,336,256,336z"/> </g> </g><g> <g> <circle cx="393.6" cy="118.4" r="17.056"/> </g> </g></symbol><symbol id="instagram-1" viewBox="0 0 551.034 551.034"><title>instagram-1</title><linearGradient id="SVGID_1_" gradientUnits="userSpaceOnUse" x1="275.517" y1="4.57" x2="275.517" y2="549.72" gradientTransform="matrix(1 0 0 -1 0 554)"> <stop offset="0" style="stop-color:#E09B3D"/> <stop offset="0.3" style="stop-color:#C74C4D"/> <stop offset="0.6" style="stop-color:#C21975"/> <stop offset="1" style="stop-color:#7024C4"/> </linearGradient><path style="fill:url(#SVGID_1_);" d="M386.878,0H164.156C73.64,0,0,73.64,0,164.156v222.722 c0,90.516,73.64,164.156,164.156,164.156h222.722c90.516,0,164.156-73.64,164.156-164.156V164.156 C551.033,73.64,477.393,0,386.878,0z M495.6,386.878c0,60.045-48.677,108.722-108.722,108.722H164.156 c-60.045,0-108.722-48.677-108.722-108.722V164.156c0-60.046,48.677-108.722,108.722-108.722h222.722 c60.045,0,108.722,48.676,108.722,108.722L495.6,386.878L495.6,386.878z"/><linearGradient id="SVGID_2_" gradientUnits="userSpaceOnUse" x1="275.517" y1="4.57" x2="275.517" y2="549.72" gradientTransform="matrix(1 0 0 -1 0 554)"> <stop offset="0" style="stop-color:#E09B3D"/> <stop offset="0.3" style="stop-color:#C74C4D"/> <stop offset="0.6" style="stop-color:#C21975"/> <stop offset="1" style="stop-color:#7024C4"/> </linearGradient><path style="fill:url(#SVGID_2_);" d="M275.517,133C196.933,133,133,196.933,133,275.516s63.933,142.517,142.517,142.517 S418.034,354.1,418.034,275.516S354.101,133,275.517,133z M275.517,362.6c-48.095,0-87.083-38.988-87.083-87.083 s38.989-87.083,87.083-87.083c48.095,0,87.083,38.988,87.083,87.083C362.6,323.611,323.611,362.6,275.517,362.6z"/><linearGradient id="SVGID_3_" gradientUnits="userSpaceOnUse" x1="418.31" y1="4.57" x2="418.31" y2="549.72" gradientTransform="matrix(1 0 0 -1 0 554)"> <stop offset="0" style="stop-color:#E09B3D"/> <stop offset="0.3" style="stop-color:#C74C4D"/> <stop offset="0.6" style="stop-color:#C21975"/> <stop offset="1" style="stop-color:#7024C4"/> </linearGradient><circle style="fill:url(#SVGID_3_);" cx="418.31" cy="134.07" r="34.15"/></symbol><symbol id="facebook" viewBox="0 0 408.788 408.788"><title>facebook</title><path style="fill:#475993;" d="M353.701,0H55.087C24.665,0,0.002,24.662,0.002,55.085v298.616c0,30.423,24.662,55.085,55.085,55.085 h147.275l0.251-146.078h-37.951c-4.932,0-8.935-3.988-8.954-8.92l-0.182-47.087c-0.019-4.959,3.996-8.989,8.955-8.989h37.882 v-45.498c0-52.8,32.247-81.55,79.348-81.55h38.65c4.945,0,8.955,4.009,8.955,8.955v39.704c0,4.944-4.007,8.952-8.95,8.955 l-23.719,0.011c-25.615,0-30.575,12.172-30.575,30.035v39.389h56.285c5.363,0,9.524,4.683,8.892,10.009l-5.581,47.087 c-0.534,4.506-4.355,7.901-8.892,7.901h-50.453l-0.251,146.078h87.631c30.422,0,55.084-24.662,55.084-55.084V55.085 C408.786,24.662,384.124,0,353.701,0z"/></symbol><symbol id="twitter" viewBox="0 0 410.155 410.155"><title>twitter</title><path style="fill:#76A9EA;" d="M403.632,74.18c-9.113,4.041-18.573,7.229-28.28,9.537c10.696-10.164,18.738-22.877,23.275-37.067 l0,0c1.295-4.051-3.105-7.554-6.763-5.385l0,0c-13.504,8.01-28.05,14.019-43.235,17.862c-0.881,0.223-1.79,0.336-2.702,0.336 c-2.766,0-5.455-1.027-7.57-2.891c-16.156-14.239-36.935-22.081-58.508-22.081c-9.335,0-18.76,1.455-28.014,4.325 c-28.672,8.893-50.795,32.544-57.736,61.724c-2.604,10.945-3.309,21.9-2.097,32.56c0.139,1.225-0.44,2.08-0.797,2.481 c-0.627,0.703-1.516,1.106-2.439,1.106c-0.103,0-0.209-0.005-0.314-0.015c-62.762-5.831-119.358-36.068-159.363-85.14l0,0 c-2.04-2.503-5.952-2.196-7.578,0.593l0,0C13.677,65.565,9.537,80.937,9.537,96.579c0,23.972,9.631,46.563,26.36,63.032 c-7.035-1.668-13.844-4.295-20.169-7.808l0,0c-3.06-1.7-6.825,0.485-6.868,3.985l0,0c-0.438,35.612,20.412,67.3,51.646,81.569 c-0.629,0.015-1.258,0.022-1.888,0.022c-4.951,0-9.964-0.478-14.898-1.421l0,0c-3.446-0.658-6.341,2.611-5.271,5.952l0,0 c10.138,31.651,37.39,54.981,70.002,60.278c-27.066,18.169-58.585,27.753-91.39,27.753l-10.227-0.006 c-3.151,0-5.816,2.054-6.619,5.106c-0.791,3.006,0.666,6.177,3.353,7.74c36.966,21.513,79.131,32.883,121.955,32.883 c37.485,0,72.549-7.439,104.219-22.109c29.033-13.449,54.689-32.674,76.255-57.141c20.09-22.792,35.8-49.103,46.692-78.201 c10.383-27.737,15.871-57.333,15.871-85.589v-1.346c-0.001-4.537,2.051-8.806,5.631-11.712c13.585-11.03,25.415-24.014,35.16-38.591 l0,0C411.924,77.126,407.866,72.302,403.632,74.18L403.632,74.18z"/></symbol><symbol id="whatsapp" viewBox="0 0 418.135 418.135"><title>whatsapp</title><path style="fill:#7AD06D;" d="M198.929,0.242C88.5,5.5,1.356,97.466,1.691,208.02c0.102,33.672,8.231,65.454,22.571,93.536 L2.245,408.429c-1.191,5.781,4.023,10.843,9.766,9.483l104.723-24.811c26.905,13.402,57.125,21.143,89.108,21.631 c112.869,1.724,206.982-87.897,210.5-200.724C420.113,93.065,320.295-5.538,198.929,0.242z M323.886,322.197 c-30.669,30.669-71.446,47.559-114.818,47.559c-25.396,0-49.71-5.698-72.269-16.935l-14.584-7.265l-64.206,15.212l13.515-65.607 l-7.185-14.07c-11.711-22.935-17.649-47.736-17.649-73.713c0-43.373,16.89-84.149,47.559-114.819 c30.395-30.395,71.837-47.56,114.822-47.56C252.443,45,293.218,61.89,323.887,92.558c30.669,30.669,47.559,71.445,47.56,114.817 C371.446,250.361,354.281,291.803,323.886,322.197z"/><path style="fill:#7AD06D;" d="M309.712,252.351l-40.169-11.534c-5.281-1.516-10.968-0.018-14.816,3.903l-9.823,10.008 c-4.142,4.22-10.427,5.576-15.909,3.358c-19.002-7.69-58.974-43.23-69.182-61.007c-2.945-5.128-2.458-11.539,1.158-16.218 l8.576-11.095c3.36-4.347,4.069-10.185,1.847-15.21l-16.9-38.223c-4.048-9.155-15.747-11.82-23.39-5.356 c-11.211,9.482-24.513,23.891-26.13,39.854c-2.851,28.144,9.219,63.622,54.862,106.222c52.73,49.215,94.956,55.717,122.449,49.057 c15.594-3.777,28.056-18.919,35.921-31.317C323.568,266.34,319.334,255.114,309.712,252.351z"/></symbol><symbol id="youtube" viewBox="0 0 461.001 461.001"><title>youtube</title><path style="fill:#F61C0D;" d="M365.257,67.393H95.744C42.866,67.393,0,110.259,0,163.137v134.728 c0,52.878,42.866,95.744,95.744,95.744h269.513c52.878,0,95.744-42.866,95.744-95.744V163.137 C461.001,110.259,418.135,67.393,365.257,67.393z M300.506,237.056l-126.06,60.123c-3.359,1.602-7.239-0.847-7.239-4.568V168.607 c0-3.774,3.982-6.22,7.348-4.514l126.06,63.881C304.363,229.873,304.298,235.248,300.506,237.056z"/></symbol></svg>